<svg width="748" height="748" viewBox="0 0 748 748" fill="none" xmlns="http://www.w3.org/2000/svg">
<path d="M374 748C580.555 748 748 580.555 748 374C748 167.445 580.555 0 374 0C167.445 0 0 167.445 0 374C0 580.555 167.445 748 374 748Z" fill="#21CA3D"/>
<path d="M571.144 339.205C572.593 350.802 574.043 362.399 574.043 373.995C574.043 481.267 484.167 569.693 373.996 569.693C263.826 569.693 173.95 481.267 173.95 373.995C173.95 266.724 263.826 178.298 373.996 178.298C429.082 178.298 478.368 200.042 514.609 233.383L563.896 184.096C514.609 137.709 449.376 108.716 375.446 108.716C226.136 108.716 105.818 227.585 105.818 372.546C105.818 517.507 224.686 637.825 373.996 637.825C523.306 637.825 643.624 518.957 643.624 373.995C643.624 362.399 642.175 350.802 640.725 339.205H571.144Z" fill="white"/>
<path d="M310.213 516.057H385.593L465.322 339.205H391.392L439.229 233.383H363.849L285.57 408.786H359.5L310.213 516.057Z" fill="white"/>
<path d="M520.407 339.205L488.516 408.786H617.531V339.205H520.407Z" fill="white"/>
</svg>
